<svg width="320" height="512" viewBox="0 0 320 512" fill="none" xmlns="http://www.w3.org/2000/svg">
<path d="M-2.86102e-06 293.515C-2.86102e-06 293.515 32.8333 209.755 150.5 209.755C268.167 209.755 320 119.702 320 119.702V293.815H-2.86102e-06V293.515Z" fill="#DFD7E6"/>
<path d="M-2.86102e-06 293.515C-2.86102e-06 293.515 32.8333 209.755 150.5 209.755C268.167 209.755 320 119.702 320 119.702V293.815H-2.86102e-06V293.515Z" fill="#DFD7E6"/>
<g opacity="0.66">
<path d="M-2.86102e-06 293.41C-2.86102e-06 293.41 32.8333 179.985 150.5 179.985C268.167 179.985 320 58.0381 320 58.0381V293.816H-2.86102e-06V293.41Z" fill="#DFD7E6"/>
<path d="M-2.86102e-06 293.41C-2.86102e-06 293.41 32.8333 179.985 150.5 179.985C268.167 179.985 320 58.0381 320 58.0381V293.816H-2.86102e-06V293.41Z" fill="#DFD7E6"/>
</g>
<g opacity="0.33">
<path d="M0 293.309C0 293.309 32.8333 151.965 150.5 151.965C268.167 151.965 320 0 320 0V293.815H0V293.309Z" fill="#DFD7E6"/>
<path d="M0 293.309C0 293.309 32.8333 151.965 150.5 151.965C268.167 151.965 320 0 320 0V293.815H0V293.309Z" fill="#DFD7E6"/>
</g>
<path d="M320 293.54C320 293.54 287.167 328.206 169.5 328.206C51.8333 328.206 -2.38419e-06 365.477 -2.38419e-06 365.477V293.416H320V293.54Z" fill="#DFD7E6"/>
<path d="M320 293.54C320 293.54 287.167 328.206 169.5 328.206C51.8333 328.206 -2.38419e-06 365.477 -2.38419e-06 365.477V293.416H320V293.54Z" fill="#DFD7E6"/>
<g opacity="0.66">
<path d="M320 293.669C320 293.669 287.167 364.157 169.5 364.157C51.8333 364.157 -2.38419e-06 439.94 -2.38419e-06 439.94V293.417H320V293.669Z" fill="#DFD7E6"/>
<path d="M320 293.669C320 293.669 287.167 364.157 169.5 364.157C51.8333 364.157 -2.38419e-06 439.94 -2.38419e-06 439.94V293.417H320V293.669Z" fill="#DFD7E6"/>
</g>
<g opacity="0.33">
<path d="M320 293.792C320 293.792 287.167 398.946 169.5 398.946C51.8333 398.946 1.06692e-05 512 1.06692e-05 512V293.416H320V293.792Z" fill="#DFD7E6"/>
<path d="M320 293.792C320 293.792 287.167 398.946 169.5 398.946C51.8333 398.946 1.06692e-05 512 1.06692e-05 512V293.416H320V293.792Z" fill="#DFD7E6"/>
</g>
</svg>
