<svg width="48" height="48" viewBox="0 0 48 48" fill="none" xmlns="http://www.w3.org/2000/svg">
<path d="M37.3324 26.0001C37.3324 27.1041 36.4381 28.0001 35.3323 28.0001C34.2278 28.0001 33.3335 27.1041 33.3335 26.0001C33.3335 24.8961 34.2291 24.0001 35.3323 24.0001C36.4381 24.0001 37.3324 24.8961 37.3324 26.0001ZM14.6666 37.3335H19.9998V34.6668H14.6666V37.3335ZM19.9998 42.6668H14.6666V40.0002H19.9998V42.6668Z" fill="#AFCEE3"/>
<path fill-rule="evenodd" clip-rule="evenodd" d="M27.6309 21.5281C28.2837 21.5281 28.3907 21.4068 28.5983 21.1734C28.7197 21.0401 28.8725 20.8668 29.1858 20.6601C30.0599 21.2255 31.0757 21.52 32.1103 21.5081L35.416 20.3374C36.3374 19.6063 36.9787 18.5683 37.2281 17.4041C37.4665 16.2503 37.2924 15.0474 36.7372 14.0134C36.1652 12.9581 35.2566 12.1347 34.1626 11.6801C33.9021 10.5519 33.2639 9.55209 32.3583 8.85338L29.131 7.75471H28.7681C28.0325 6.72324 26.9569 5.99783 25.7392 5.71204L20.154 5.33337C19.0051 5.42671 17.9202 5.89338 17.0755 6.65871C15.7041 6.3314 14.2616 6.57205 13.0635 7.32805C12.2399 7.84439 11.582 8.59512 11.1704 9.48805L8.54362 11.2987C7.89351 12.1498 7.53976 13.198 7.53834 14.2774C7.53181 14.7267 7.59317 15.1734 7.72112 15.6041C7.03668 16.4628 6.664 17.5368 6.66622 18.6441C6.67033 19.9312 7.17356 21.1643 8.06578 22.0734C8.13759 22.9868 8.46529 23.8628 9.01362 24.6068C9.56196 25.3534 10.3061 25.9374 11.1717 26.3001C12.1584 26.8993 13.0014 27.7161 13.6392 28.6908C14.2685 29.6574 14.527 30.7494 14.6667 31.8855H20.154V26.5814C20.154 25.6401 20.4229 24.7174 20.9334 23.9174C21.0108 23.7957 21.0844 23.6779 21.154 23.5641C21.5457 22.9268 21.8616 22.4094 22.598 22.0574C23.4039 21.7571 24.1356 21.2801 24.7417 20.6601C25.6021 21.2279 26.6052 21.5289 27.6296 21.5268M29.6336 17.7587L30.6428 18.4187C30.9601 18.6254 31.3269 18.7614 31.7121 18.8107L34.0203 17.9934C34.3245 17.6654 34.5282 17.2694 34.6157 16.8494C34.7282 16.3094 34.6461 15.746 34.3846 15.2627C34.1031 14.7484 33.6582 14.3477 33.1234 14.1267L31.8635 13.5934L31.5606 12.2601C31.4687 11.859 31.2714 11.4912 30.9901 11.1961L28.6884 10.4121H27.3829L26.5865 9.28139C26.2674 8.83347 25.8134 8.50469 25.294 8.34538L20.2049 8.00138C19.7082 8.07088 19.2424 8.28786 18.8654 8.62538L17.834 9.56005L16.4775 9.24939C16.1417 9.1661 15.793 9.15174 15.4516 9.20713C15.1103 9.26252 14.7832 9.38656 14.4891 9.57205C14.1016 9.81493 13.7914 10.1674 13.5961 10.5867L13.2893 11.2561L10.4772 13.1961C10.2957 13.5281 10.203 13.8947 10.203 14.2654V14.3081C10.2004 14.4885 10.2247 14.6663 10.2761 14.8414L10.6678 16.1667L9.80871 17.2507C9.49146 17.6507 9.32826 18.1334 9.33218 18.6187V18.6387C9.33218 19.2094 9.55412 19.7721 9.97712 20.2081L10.6456 20.8961L10.7226 21.8534C10.7552 22.2668 10.9041 22.6708 11.16 23.0188C11.4172 23.3694 11.7736 23.6521 12.1992 23.8294L12.3859 23.9081L12.5595 24.0148C12.9564 24.2548 13.3346 24.5205 13.6941 24.8121C14.1575 25.1761 14.7346 25.7081 15.4827 26.6628C16.266 27.6628 16.6942 28.7814 16.8104 29.2148H17.4932V28.0481C17.4932 27.9308 17.4915 27.7934 17.488 27.6361C17.475 26.8708 17.4528 25.6934 17.6865 24.7668C17.9672 23.6521 18.5455 22.5641 19.2688 21.5268C19.9934 20.4908 21.0874 19.7668 21.4987 19.6108C21.9099 19.4548 22.3264 19.2934 22.7324 18.8867C23.0588 18.5614 23.9597 17.6267 24.3683 17.2001L26.1961 18.4241C26.546 18.6574 27.0095 18.7881 27.1962 18.8241C27.2471 18.7841 27.405 18.6574 27.6335 18.4854C27.8633 18.3147 28.7641 17.7174 29.1871 17.4387L29.6336 17.7587Z" fill="#AFCEE3"/>
<path fill-rule="evenodd" clip-rule="evenodd" d="M44.9531 25.8215C44.9531 25.8215 48.4154 28.9362 47.9585 31.4348C47.5015 33.9335 42.9934 34.6215 42.9934 34.6215C42.9934 44.7189 33.3505 44.0762 28.5382 43.1269C27.6382 42.9551 26.7482 42.7325 25.8723 42.4602V44.3589C25.8723 44.3589 25.7718 44.6762 25.4623 45.1242C24.7273 46.1869 22.8134 47.9802 18.2622 47.9802C15.2163 48.2216 10.0032 46.2282 8.62192 43.4175V34.8189C3.75218 31.1788 0 26.2762 0 19.9201C0 14.6361 2.20379 9.56944 6.1283 5.83477C10.0528 2.10009 15.3756 8.21528e-05 20.9255 8.21528e-05C25.1451 -0.00976463 29.3218 0.865661 33.1965 2.57209C36.2254 3.78543 38.8783 5.71877 40.8993 8.18544C42.748 10.7761 43.7715 13.8201 43.8499 16.9495C43.8655 17.6695 43.8564 18.3521 43.8459 19.0121C43.812 21.3415 43.7807 23.3935 44.9531 25.8215ZM42.7793 27.4535L42.5508 26.9802C41.0768 23.9268 41.1304 21.0921 41.1748 18.6908C41.1852 18.1041 41.1956 17.5455 41.1839 17.0148C41.1095 14.4204 40.2725 11.9088 38.7817 9.80678C37.057 7.7281 34.7971 6.08677 32.2043 5.04676L32.1612 5.02943L32.1181 5.01076C28.5845 3.45837 24.7774 2.66068 20.9307 2.66676H20.9268C16.044 2.66676 11.3832 4.51476 7.96914 7.76544C4.55771 11.0121 2.66857 15.3881 2.66857 19.9201C2.66857 25.0962 5.69616 29.3028 10.2199 32.6828L11.2905 33.4828V42.6429C11.7344 43.1722 12.5987 43.8309 13.8964 44.4029C15.4879 45.1055 17.1002 45.3976 18.0533 45.3229L18.1577 45.3135H18.2635C20.9686 45.3135 22.2441 44.5709 22.7938 44.1149C22.9831 43.9589 23.1162 43.8109 23.2063 43.6949V38.7802L26.7 39.9269H26.7039L26.7235 39.9335L26.8358 39.9682C26.9411 40.0002 27.0986 40.0451 27.3084 40.1029C27.7262 40.2162 28.3333 40.3682 29.0644 40.5122C30.5475 40.8055 32.4379 41.0455 34.2605 40.9255C36.1131 40.8055 37.5988 40.3362 38.5911 39.4922C39.4828 38.7335 40.3274 37.3735 40.3274 34.6228V32.3322L42.5822 31.9882L42.5965 31.9855L42.6892 31.9682C43.238 31.864 43.7757 31.7064 44.295 31.4975C44.7429 31.3148 45.0666 31.1242 45.2586 30.9602L45.3277 30.8962C45.3039 30.7612 45.2645 30.6296 45.2102 30.5042C45.0187 30.0666 44.7753 29.6546 44.4857 29.2775C44.0922 28.7515 43.6555 28.2608 43.1801 27.8108L43.1697 27.8042V27.8028L43.167 27.8015L43.1657 27.7988L42.7793 27.4535ZM45.3747 30.8402V30.8428L45.3708 30.8455L45.3747 30.8402Z" fill="#AFCEE3"/>
</svg>
