<svg width="46" height="46" viewBox="0 0 46 46" fill="none" xmlns="http://www.w3.org/2000/svg">
<path d="M33.625 26.75C34.1223 26.75 34.5992 26.5525 34.9508 26.2008C35.3025 25.8492 35.5 25.3723 35.5 24.875C35.5 24.3777 35.3025 23.9008 34.9508 23.5492C34.5992 23.1976 34.1223 23 33.625 23C33.1277 23 32.6508 23.1976 32.2992 23.5492C31.9475 23.9008 31.75 24.3777 31.75 24.875C31.75 25.3723 31.9475 25.8492 32.2992 26.2008C32.6508 26.5525 33.1277 26.75 33.625 26.75ZM21.55 8.26251C23.1287 7.79626 24.9212 7.89376 26.525 9.02876H19.825C20.3654 8.70171 20.945 8.44426 21.55 8.26251Z" fill="#AFCEE3"/>
<path fill-rule="evenodd" clip-rule="evenodd" d="M19.825 9.02884H26.525C28.1838 10.1976 29.1763 12.1488 29.245 14.1613C29.355 17.3088 27.67 19.9738 25.6887 22.1413C24.1525 23.8201 22.2963 25.3438 20.7137 26.6438C20.2587 27.0163 19.8263 27.3701 19.4325 27.7051L18.6188 28.3926L17.81 27.6976C17.375 27.3238 16.8925 26.9251 16.385 26.5038C14.8425 25.2288 13.055 23.7501 11.5725 22.1363C9.59125 19.9763 7.9025 17.3201 8.005 14.1638V14.1613C8.07375 12.1488 9.06625 10.1963 10.7262 9.02759H17.4213C17.8513 9.28675 18.2525 9.57842 18.625 9.90259C18.9995 9.57744 19.4009 9.28472 19.825 9.02759M19.5875 12.4801C20.2763 11.6476 21.25 10.9576 22.2587 10.6588C23.2388 10.3688 24.2087 10.4513 25.08 11.0688L25.0838 11.0713C26.065 11.7613 26.7025 12.9676 26.7463 14.2463C26.8213 16.4126 25.6688 18.4576 23.8438 20.4526C22.4412 21.9863 20.7813 23.3501 19.2175 24.6338L18.63 25.1163C18.3792 24.9063 18.1246 24.6951 17.8663 24.4826C16.355 23.2326 14.77 21.9201 13.4163 20.4451C11.59 18.4563 10.4325 16.4201 10.5038 14.2451C10.5475 12.9663 11.1838 11.7613 12.1663 11.0701C13.0375 10.4576 14.0113 10.3738 14.9913 10.6638C16.0013 10.9613 16.9738 11.6476 17.6613 12.4801L18.6238 13.6451L19.5875 12.4801Z" fill="#AFCEE3"/>
<path d="M17.4213 9.02877H10.725C12.3275 7.90002 14.12 7.80127 15.6975 8.26627C16.3013 8.44502 16.8813 8.70627 17.42 9.02877" fill="#AFCEE3"/>
<path fill-rule="evenodd" clip-rule="evenodd" d="M45.4613 29.9701C45.8888 27.6276 42.6437 24.7076 42.6437 24.7076C41.545 22.4326 41.5737 20.5076 41.6062 18.3238C41.615 17.7051 41.625 17.0651 41.6087 16.3901C41.529 13.4367 40.5663 10.575 38.845 8.1738C36.9178 5.84024 34.4333 4.03028 31.6213 2.9113C27.9974 1.31363 24.0792 0.492268 20.1187 0.500055C14.915 0.500055 9.925 2.46756 6.24625 5.97006C2.5675 9.47256 0.5 14.2226 0.5 19.1751C0.5 25.1338 4.0175 29.7301 8.58375 33.1426V41.2038C9.87875 43.8388 14.7663 45.7076 17.6213 45.4813C21.8888 45.4813 23.6838 43.8001 24.3713 42.8038C24.6613 42.3838 24.755 42.0863 24.755 42.0863V40.3076C24.755 40.3076 25.755 40.6351 27.255 40.9313C31.7675 41.8213 40.8062 42.4238 40.8062 32.9588C40.8062 32.9588 45.0338 32.3113 45.4613 29.9701ZM40.3912 25.7951L40.605 26.2388L40.9675 26.5638L40.97 26.5663L40.9787 26.5751L41.05 26.6413C41.1162 26.7063 41.2175 26.8038 41.3388 26.9313C41.5875 27.1901 41.905 27.5476 42.2038 27.9501C42.51 28.3626 42.7463 28.7588 42.8838 29.0988C42.9575 29.2801 42.9837 29.3988 42.9937 29.4663L42.93 29.5263C42.7487 29.6801 42.445 29.8588 42.0263 30.0301C41.5124 30.2364 40.9788 30.3897 40.4337 30.4876L40.4212 30.4901L38.3062 30.8126V32.9601C38.3062 35.5388 37.5138 36.8138 36.6787 37.5251C35.7488 38.3163 34.3537 38.7563 32.6188 38.8688C30.91 38.9813 29.1375 38.7563 27.7463 38.4813C27.0431 38.3429 26.3465 38.1727 25.6588 37.9713L25.5525 37.9388L25.5338 37.9326H25.53L22.255 36.8576V41.4651C22.1408 41.6102 22.0108 41.7423 21.8675 41.8588C21.3525 42.2863 20.1562 42.9838 17.6213 42.9838H17.5213L17.4237 42.9901C16.5312 43.0613 15.0188 42.7876 13.5275 42.1301C12.31 41.5926 11.5013 40.9751 11.0837 40.4801V31.8926L10.08 31.1426C5.83875 27.9701 3 24.0276 3 19.1751C3 14.9251 4.7725 10.8251 7.97 7.78006C11.1713 4.73256 15.54 3.00005 20.1187 3.00005H20.1213C23.733 2.99241 27.3063 3.74097 30.6113 5.19756L30.6513 5.21506L30.6912 5.2313C33.1225 6.2063 35.2412 7.74505 36.8575 9.6938C38.2611 11.6735 39.0451 14.0254 39.11 16.4513C39.1213 16.9488 39.1113 17.4726 39.1012 18.0213C39.0588 20.2726 39.01 22.9313 40.3912 25.7951Z" fill="#AFCEE3"/>
</svg>
