<svg width="360" height="97" viewBox="0 0 360 97" fill="none" xmlns="http://www.w3.org/2000/svg">
<path d="M272.812 24.5424C198.375 36.7122 202.406 99.387 130.312 58.2123C58.2188 17.0377 0 58.2123 0 58.2123V0H360V86C360 86 347.25 12.3726 272.812 24.5424Z" fill="#AFCEE3"/>
<path d="M272.812 36.5424C198.375 48.7122 202.406 111.387 130.312 70.2123C58.2188 29.0377 0 70.2123 0 70.2123V12H360V98C360 98 347.25 24.3726 272.812 36.5424Z" fill="#AFCEE3" fill-opacity="0.66"/>
<path d="M272.812 47.5424C198.375 59.7122 202.406 122.387 130.312 81.2123C58.2188 40.0377 0 81.2123 0 81.2123V23H360V109C360 109 347.25 35.3726 272.812 47.5424Z" fill="#AFCEE3" fill-opacity="0.33"/>
</svg>
