<svg width="360" height="103" viewBox="0 0 360 103" fill="none" xmlns="http://www.w3.org/2000/svg">
<path d="M0 102.895C0 102.895 36.9375 73.532 169.312 73.532C301.688 73.532 360 41.963 360 41.963V103H0V102.895Z" fill="#AFCEE3"/>
<path d="M0 102.895C0 102.895 36.9375 73.532 169.312 73.532C301.688 73.532 360 41.963 360 41.963V103H0V102.895Z" fill="#AFCEE3"/>
<g opacity="0.66">
<path d="M0 102.858C0 102.858 36.9375 63.0955 169.312 63.0955C301.688 63.0955 360 20.3457 360 20.3457V103H0V102.858Z" fill="#AFCEE3"/>
<path d="M0 102.858C0 102.858 36.9375 63.0955 169.312 63.0955C301.688 63.0955 360 20.3457 360 20.3457V103H0V102.858Z" fill="#AFCEE3"/>
</g>
<g opacity="0.33">
<path d="M0 102.823C0 102.823 36.9375 53.2728 169.312 53.2728C301.688 53.2728 360 0 360 0V103H0V102.823Z" fill="#AFCEE3"/>
<path d="M0 102.823C0 102.823 36.9375 53.2728 169.312 53.2728C301.688 53.2728 360 0 360 0V103H0V102.823Z" fill="#AFCEE3"/>
</g>
</svg>
