<svg width="320" height="512" fill="none" xmlns="http://www.w3.org/2000/svg"><path d="M0 293.515s32.833-83.76 150.5-83.76S320 119.702 320 119.702v174.113H0v-.3Z" fill="#DFD7E6"/><path d="M0 293.515s32.833-83.76 150.5-83.76S320 119.702 320 119.702v174.113H0v-.3Z" fill="#DFD7E6"/><g opacity=".66" fill="#DFD7E6"><path d="M0 293.41s32.833-113.425 150.5-113.425S320 58.038 320 58.038v235.778H0v-.406Z"/><path d="M0 293.41s32.833-113.425 150.5-113.425S320 58.038 320 58.038v235.778H0v-.406Z"/></g><g opacity=".33" fill="#DFD7E6"><path d="M0 293.309s32.833-141.344 150.5-141.344S320 0 320 0v293.815H0v-.506Z"/><path d="M0 293.309s32.833-141.344 150.5-141.344S320 0 320 0v293.815H0v-.506Z"/></g><path d="M320 293.54s-32.833 34.666-150.5 34.666S0 365.477 0 365.477v-72.061h320v.124Z" fill="#DFD7E6"/><path d="M320 293.54s-32.833 34.666-150.5 34.666S0 365.477 0 365.477v-72.061h320v.124Z" fill="#DFD7E6"/><g opacity=".66" fill="#DFD7E6"><path d="M320 293.669s-32.833 70.488-150.5 70.488S0 439.94 0 439.94V293.417h320v.252Z"/><path d="M320 293.669s-32.833 70.488-150.5 70.488S0 439.94 0 439.94V293.417h320v.252Z"/></g><g opacity=".33" fill="#DFD7E6"><path d="M320 293.792s-32.833 105.154-150.5 105.154S0 512 0 512V293.416h320v.376Z"/><path d="M320 293.792s-32.833 105.154-150.5 105.154S0 512 0 512V293.416h320v.376Z"/></g></svg>