<svg width="48" height="48" fill="none" xmlns="http://www.w3.org/2000/svg"><path d="M37.332 26a2 2 0 1 1-3.999 0 2 2 0 0 1 4 0ZM14.667 37.334H20v-2.667h-5.333v2.666ZM20 42.666h-5.333V40H20v2.667Z" fill="#AFCEE3"/><path fill-rule="evenodd" clip-rule="evenodd" d="M27.63 21.528c.654 0 .76-.121.968-.355.122-.133.274-.306.588-.513a5.27 5.27 0 0 0 2.924.848l3.306-1.17a5.107 5.107 0 0 0 1.812-2.934 5.026 5.026 0 0 0-.49-3.39 5.207 5.207 0 0 0-2.575-2.334 4.983 4.983 0 0 0-1.805-2.827l-3.227-1.098h-.363a5.178 5.178 0 0 0-3.029-2.043l-5.585-.379a5.216 5.216 0 0 0-3.078 1.326 5.233 5.233 0 0 0-4.013.67 5.032 5.032 0 0 0-1.893 2.159l-2.626 1.81a4.92 4.92 0 0 0-1.006 2.98c-.006.449.055.895.183 1.326a4.864 4.864 0 0 0-1.055 3.04 4.92 4.92 0 0 0 1.4 3.43c.072.913.4 1.789.948 2.533a5.131 5.131 0 0 0 2.158 1.693c.986.6 1.83 1.416 2.467 2.39.63.967.888 2.06 1.028 3.195h5.487v-5.304c0-.94.269-1.864.78-2.664.077-.121.15-.24.22-.353.392-.637.708-1.155 1.444-1.507a5.861 5.861 0 0 0 2.144-1.397c.86.568 1.863.869 2.888.867m2.004-3.768 1.009.66c.317.206.684.342 1.07.392l2.307-.818c.304-.328.508-.724.596-1.144a2.34 2.34 0 0 0-.231-1.586 2.551 2.551 0 0 0-1.262-1.136l-1.26-.534-.302-1.333a2.28 2.28 0 0 0-.57-1.064l-2.303-.784h-1.305l-.796-1.13a2.483 2.483 0 0 0-1.293-.937l-5.09-.344c-.496.07-.962.287-1.339.624l-1.031.935-1.357-.31a2.558 2.558 0 0 0-1.988.322 2.384 2.384 0 0 0-.893 1.015l-.307.67-2.812 1.94a2.225 2.225 0 0 0-.274 1.068v.043c-.003.18.022.358.073.533l.392 1.326-.86 1.084c-.317.4-.48.882-.476 1.368v.02c0 .57.222 1.133.645 1.57l.669.687.077.957c.032.414.181.818.437 1.166.257.35.614.633 1.04.81l.186.08.174.106c.396.24.775.505 1.134.797.463.364 1.04.896 1.789 1.85.783 1 1.211 2.12 1.327 2.553h.683v-1.167c0-.117-.002-.255-.005-.412-.013-.765-.035-1.943.198-2.87.281-1.114.86-2.202 1.583-3.24.724-1.035 1.818-1.76 2.23-1.915.41-.156.827-.318 1.233-.724a151.06 151.06 0 0 0 1.636-1.687l1.828 1.224c.35.233.813.364 1 .4.051-.04.209-.167.438-.339.23-.17 1.13-.768 1.553-1.046l.447.32Z" fill="#AFCEE3"/><path fill-rule="evenodd" clip-rule="evenodd" d="M44.953 25.822s3.462 3.114 3.005 5.613c-.456 2.499-4.965 3.186-4.965 3.186 0 10.098-9.643 9.455-14.455 8.506a24.5 24.5 0 0 1-2.666-.667v1.899s-.1.317-.41.765c-.735 1.063-2.649 2.856-7.2 2.856-3.046.242-8.259-1.752-9.64-4.563V34.82C3.752 31.179 0 26.276 0 19.92 0 14.636 2.204 9.57 6.128 5.835 10.053 2.1 15.376 0 20.925 0a30.26 30.26 0 0 1 12.271 2.572c3.03 1.213 5.682 3.147 7.703 5.613a15.757 15.757 0 0 1 2.95 8.764c.017.72.007 1.403-.003 2.063-.034 2.33-.065 4.381 1.107 6.81Zm-2.174 1.631-.228-.473c-1.474-3.053-1.42-5.888-1.376-8.29.01-.586.02-1.145.009-1.675a13.114 13.114 0 0 0-2.402-7.208c-1.725-2.079-3.985-3.72-6.578-4.76l-.043-.018-.043-.018a27.696 27.696 0 0 0-11.187-2.344h-.004c-4.883 0-9.544 1.848-12.958 5.098-3.411 3.247-5.3 7.623-5.3 12.155 0 5.176 3.027 9.383 7.55 12.763l1.072.8v9.16c.443.53 1.308 1.188 2.605 1.76 1.592.703 3.204.995 4.157.92l.105-.01h.105c2.706 0 3.981-.742 4.53-1.198a2.64 2.64 0 0 0 .413-.42V38.78l3.494 1.147h.004l.02.007.112.034c.105.032.263.077.472.135.418.113 1.025.265 1.756.41 1.483.293 3.374.532 5.197.413 1.852-.12 3.338-.59 4.33-1.434.892-.758 1.736-2.118 1.736-4.87v-2.29l2.255-.344.014-.003.093-.017a8.602 8.602 0 0 0 1.606-.47c.448-.183.772-.374.964-.538l.069-.064a1.752 1.752 0 0 0-.118-.392 5.893 5.893 0 0 0-.724-1.227 11.527 11.527 0 0 0-1.306-1.466l-.01-.007v-.001l-.003-.002-.001-.002-.387-.346Zm2.596 3.387v.003l-.004.003.004-.006Z" fill="#AFCEE3"/></svg>