<svg width="46" height="46" fill="none" xmlns="http://www.w3.org/2000/svg"><path d="M33.625 26.75a1.875 1.875 0 1 0 0-3.75 1.875 1.875 0 0 0 0 3.75ZM21.55 8.263c1.579-.467 3.371-.37 4.975.766h-6.7a7.498 7.498 0 0 1 1.725-.766Z" fill="#AFCEE3"/><path fill-rule="evenodd" clip-rule="evenodd" d="M19.825 9.029h6.7c1.659 1.169 2.651 3.12 2.72 5.132.11 3.148-1.575 5.813-3.556 7.98-1.537 1.68-3.393 3.203-4.975 4.503-.455.372-.888.726-1.281 1.061l-.814.688-.809-.695c-.435-.374-.918-.773-1.425-1.194-1.543-1.275-3.33-2.754-4.813-4.368-1.98-2.16-3.67-4.816-3.567-7.972v-.003c.069-2.012 1.061-3.965 2.721-5.133h6.695c.43.259.832.55 1.204.875a8.75 8.75 0 0 1 1.2-.875m-.238 3.452c.69-.832 1.663-1.522 2.672-1.821.98-.29 1.95-.208 2.821.41l.004.002c.981.69 1.619 1.897 1.662 3.175.075 2.167-1.077 4.212-2.902 6.207-1.403 1.533-3.063 2.897-4.627 4.18l-.587.483c-.25-.21-.505-.42-.764-.633-1.511-1.25-3.096-2.563-4.45-4.038-1.826-1.989-2.984-4.025-2.912-6.2.043-1.279.68-2.484 1.662-3.175.871-.612 1.845-.696 2.825-.406 1.01.297 1.983.984 2.67 1.816l.963 1.165.963-1.165Z" fill="#AFCEE3"/><path d="M17.421 9.029h-6.696C12.328 7.9 14.12 7.8 15.698 8.266c.603.179 1.183.44 1.722.763" fill="#AFCEE3"/><path fill-rule="evenodd" clip-rule="evenodd" d="M45.461 29.97c.428-2.342-2.817-5.262-2.817-5.262-1.099-2.275-1.07-4.2-1.038-6.384.009-.619.019-1.259.003-1.934a14.787 14.787 0 0 0-2.764-8.216 18 18 0 0 0-7.224-5.263A28.375 28.375 0 0 0 20.12.501C14.915.5 9.925 2.467 6.246 5.97 2.567 9.472.5 14.222.5 19.174c0 5.959 3.518 10.555 8.084 13.968v8.06c1.295 2.636 6.182 4.505 9.037 4.278 4.268 0 6.063-1.68 6.75-2.677.29-.42.384-.718.384-.718v-1.778s1 .327 2.5.623c4.512.89 13.551 1.493 13.551-7.972 0 0 4.228-.648 4.655-2.989Zm-5.07-4.175.214.444.363.325.002.002.009.01.071.065c.066.065.168.163.289.29.248.26.566.617.865 1.02.306.412.542.808.68 1.148.074.181.1.3.11.367l-.064.06c-.181.154-.485.333-.904.504a8.135 8.135 0 0 1-1.592.458l-.013.002-2.115.323v2.147c0 2.579-.792 3.854-1.627 4.565-.93.791-2.325 1.231-4.06 1.344-1.709.112-3.482-.113-4.873-.388-.703-.138-1.4-.308-2.087-.51l-.107-.032-.018-.006h-.004l-3.275-1.075v4.607a2.5 2.5 0 0 1-.387.394c-.515.427-1.712 1.125-4.247 1.125h-.1l-.097.006c-.893.071-2.405-.202-3.896-.86-1.218-.537-2.027-1.155-2.444-1.65v-8.587l-1.004-.75C5.839 27.97 3 24.028 3 19.175c0-4.25 1.772-8.35 4.97-11.395C11.171 4.733 15.54 3 20.119 3h.002a25.862 25.862 0 0 1 10.49 2.198l.04.017.04.016a15.484 15.484 0 0 1 6.167 4.463 12.25 12.25 0 0 1 2.252 6.757c.011.498.001 1.022-.009 1.57-.042 2.252-.091 4.91 1.29 7.774Z" fill="#AFCEE3"/></svg>