<svg width="360" height="103" fill="none" xmlns="http://www.w3.org/2000/svg"><path d="M0 102.895s36.938-29.363 169.312-29.363C301.688 73.532 360 41.963 360 41.963V103H0v-.105Z" fill="#AFCEE3"/><path d="M0 102.895s36.938-29.363 169.312-29.363C301.688 73.532 360 41.963 360 41.963V103H0v-.105Z" fill="#AFCEE3"/><g opacity=".66" fill="#AFCEE3"><path d="M0 102.858s36.938-39.763 169.312-39.763C301.688 63.096 360 20.346 360 20.346V103H0v-.142Z"/><path d="M0 102.858s36.938-39.763 169.312-39.763C301.688 63.096 360 20.346 360 20.346V103H0v-.142Z"/></g><g opacity=".33" fill="#AFCEE3"><path d="M0 102.823s36.938-49.55 169.312-49.55C301.688 53.273 360 0 360 0v103H0v-.177Z"/><path d="M0 102.823s36.938-49.55 169.312-49.55C301.688 53.273 360 0 360 0v103H0v-.177Z"/></g></svg>