<svg width="360" height="97" fill="none" xmlns="http://www.w3.org/2000/svg"><path d="M272.812 24.542c-74.437 12.17-70.406 74.845-142.5 33.67C58.219 17.038 0 58.212 0 58.212V0h360v86s-12.75-73.627-87.188-61.458Z" fill="#AFCEE3"/><path d="M272.812 36.542c-74.437 12.17-70.406 74.845-142.5 33.67C58.219 29.038 0 70.212 0 70.212V12h360v86s-12.75-73.627-87.188-61.458Z" fill="#AFCEE3" fill-opacity=".66"/><path d="M272.812 47.542c-74.437 12.17-70.406 74.845-142.5 33.67C58.219 40.038 0 81.212 0 81.212V23h360v86s-12.75-73.627-87.188-61.458Z" fill="#AFCEE3" fill-opacity=".33"/></svg>